# xmcd
#
# Track frame offsets: 
#        150
#        13449
#        34239
#        49589
#        70514
#        89591
#        104318
#        114625
#
# Disc length: 1786 seconds
#
# Revision: 0
# Processed by: cddbd v1.5.2PL0 Copyright (c) Steve Scherf et al.
# Submitted via: ExactAudioCopy v0.99pb5
#
DISCID=6806f808
DTITLE=The Giving Tree Band - www.thegivingtreeband.com
DYEAR=2006
DGENRE=Bluegrass
TTITLE0=West Coast
TTITLE1=Sunshine Baby
TTITLE2=One Life At A Time
TTITLE3=Reflections
TTITLE4=Alabama Road
TTITLE5=Oh My Mind
TTITLE6=Guardian Angel
TTITLE7=All My Life
EXTD=
EXTT0=
EXTT1=
EXTT2=
EXTT3=
EXTT4=
EXTT5=
EXTT6=
EXTT7=
PLAYORDER=
